<?xml version="1.0" encoding="UTF-8"?>
<svg width="800" height="525" viewBox="0 0 800 525" fill="none" xmlns="http://www.w3.org/2000/svg" xmlns:xlink="http://www.w3.org/1999/xlink">
  <defs>
    <filter id="glow" x="-50%" y="-50%" width="200%" height="200%">
      <feGaussianBlur stdDeviation="8" result="coloredBlur"/>
      <feMerge>
        <feMergeNode in="coloredBlur"/>
        <feMergeNode in="SourceGraphic"/>
      </feMerge>
    </filter>
    <clipPath id="avatar-clip">
      <circle cx="60" cy="45" r="20" />
    </clipPath>
    <clipPath id="repo-clip">
       <circle cx="12" cy="12" r="12" />
    </clipPath>
  </defs>
  
  <!-- Background -->
  <rect width="800" height="525" rx="16" fill="#1a1a1a" />
  
  <!-- Header -->
  
  <a xlink:href="https://github.com/alexdev" target="_blank">
    <g>
      <image href="" x="40" y="25" width="40" height="40" clip-path="url(#avatar-clip)" />
      <circle cx="60" cy="45" r="20" fill="none" stroke="#22c55e" stroke-width="2"/>
      <text x="95" y="52" font-family="system-ui, -apple-system, sans-serif" font-size="24" font-weight="600" fill="white">alexdev</text>
    </g>
  </a>
  

  <g transform="translate(40, 90)">
    
    <g transform="translate(0, 0)">
      <rect x="-5" y="-5" width="70" height="70" rx="14" fill="#22c55e" opacity="0.15" filter="url(#glow)"/>
      <rect width="60" height="60" rx="12" fill="#1f2937" stroke="#22c55e" stroke-width="1.5" opacity="0.9"/>
      <g transform="translate(18, 18)" fill="#22c55e">
        <path d="M16 19.25a3.25 3.25 0 1 1 6.5 0 3.25 3.25 0 0 1-6.5 0Zm-14.5 0a3.25 3.25 0 1 1 6.5 0 3.25 3.25 0 0 1-6.5 0Zm0-14.5a3.25 3.25 0 1 1 6.5 0 3.25 3.25 0 0 1-6.5 0ZM4.75 3a1.75 1.75 0 1 0 .001 3.501A1.75 1.75 0 0 0 4.75 3Zm0 14.5a1.75 1.75 0 1 0 .001 3.501A1.75 1.75 0 0 0 4.75 17.5Zm14.5 0a1.75 1.75 0 1 0 .001 3.501 1.75 1.75 0 0 0-.001-3.501Z"></path><path d="M13.405 1.72a.75.75 0 0 1 0 1.06L12.185 4h4.065A3.75 3.75 0 0 1 20 7.75v8.75a.75.75 0 0 1-1.5 0V7.75a2.25 2.25 0 0 0-2.25-2.25h-4.064l1.22 1.22a.75.75 0 0 1-1.061 1.06l-2.5-2.5a.75.75 0 0 1 0-1.06l2.5-2.5a.75.75 0 0 1 1.06 0ZM4.75 7.25A.75.75 0 0 1 5.5 8v8A.75.75 0 0 1 4 16V8a.75.75 0 0 1 .75-.75Z"></path>
      </g>
      <text x="75" y="35" font-family="system-ui, -apple-system, sans-serif" font-size="32" font-weight="700" fill="white">124</text>
      <text x="75" y="52" font-family="system-ui, -apple-system, sans-serif" font-size="10" font-weight="600" fill="#9ca3af" letter-spacing="0.5">PRS OPENED</text>
    </g>
    
    <g transform="translate(250, 0)">
      <rect x="-5" y="-5" width="70" height="70" rx="14" fill="#22c55e" opacity="0.15" filter="url(#glow)"/>
      <rect width="60" height="60" rx="12" fill="#1f2937" stroke="#22c55e" stroke-width="1.5" opacity="0.9"/>
      <g transform="translate(18, 18)" fill="#22c55e">
        <path d="M10.3 6.74a.75.75 0 0 1-.04 1.06l-2.908 2.7 2.908 2.7a.75.75 0 1 1-1.02 1.1l-3.5-3.25a.75.75 0 0 1 0-1.1l3.5-3.25a.75.75 0 0 1 1.06.04Zm3.44 1.06a.75.75 0 1 1 1.02-1.1l3.5 3.25a.75.75 0 0 1 0 1.1l-3.5 3.25a.75.75 0 1 1-1.02-1.1l2.908-2.7-2.908-2.7Z"></path><path d="M1.5 4.25c0-.966.784-1.75 1.75-1.75h17.5c.966 0 1.75.784 1.75 1.75v12.5a1.75 1.75 0 0 1-1.75 1.75h-9.69l-3.573 3.573A1.458 1.458 0 0 1 5 21.043V18.5H3.25a1.75 1.75 0 0 1-1.75-1.75ZM3.25 4a.25.25 0 0 0-.25.25v12.5c0 .138.112.25.25.25h2.5a.75.75 0 0 1 .75.75v3.19l3.72-3.72a.749.749 0 0 1 .53-.22h10a.25.25 0 0 0 .25-.25V4.25a.25.25 0 0 0-.25-.25Z"></path>
      </g>
      <text x="75" y="35" font-family="system-ui, -apple-system, sans-serif" font-size="32" font-weight="700" fill="white">539</text>
      <text x="75" y="52" font-family="system-ui, -apple-system, sans-serif" font-size="10" font-weight="600" fill="#9ca3af" letter-spacing="0.5">CODE REVIEWS</text>
    </g>
    
    <g transform="translate(500, 0)">
      <rect x="-5" y="-5" width="70" height="70" rx="14" fill="#22c55e" opacity="0.15" filter="url(#glow)"/>
      <rect width="60" height="60" rx="12" fill="#1f2937" stroke="#22c55e" stroke-width="1.5" opacity="0.9"/>
      <g transform="translate(18, 18)" fill="#22c55e">
        <path d="M12 1c6.075 0 11 4.925 11 11s-4.925 11-11 11S1 18.075 1 12 5.925 1 12 1ZM2.5 12a9.5 9.5 0 0 0 9.5 9.5 9.5 9.5 0 0 0 9.5-9.5A9.5 9.5 0 0 0 12 2.5 9.5 9.5 0 0 0 2.5 12Zm9.5 2a2 2 0 1 1-.001-3.999A2 2 0 0 1 12 14Z"></path>
      </g>
      <text x="75" y="35" font-family="system-ui, -apple-system, sans-serif" font-size="32" font-weight="700" fill="white">32</text>
      <text x="75" y="52" font-family="system-ui, -apple-system, sans-serif" font-size="10" font-weight="600" fill="#9ca3af" letter-spacing="0.5">ISSUES OPENED</text>
    </g>
    
    <g transform="translate(0, 90)">
      <rect x="-5" y="-5" width="70" height="70" rx="14" fill="#22c55e" opacity="0.15" filter="url(#glow)"/>
      <rect width="60" height="60" rx="12" fill="#1f2937" stroke="#22c55e" stroke-width="1.5" opacity="0.9"/>
      <g transform="translate(18, 18)" fill="#22c55e">
        <path d="M1.5 4.25c0-.966.784-1.75 1.75-1.75h17.5c.966 0 1.75.784 1.75 1.75v12.5a1.75 1.75 0 0 1-1.75 1.75h-9.69l-3.573 3.573A1.458 1.458 0 0 1 5 21.043V18.5H3.25a1.75 1.75 0 0 1-1.75-1.75ZM3.25 4a.25.25 0 0 0-.25.25v12.5c0 .138.112.25.25.25h2.5a.75.75 0 0 1 .75.75v3.19l3.72-3.72a.749.749 0 0 1 .53-.22h10a.25.25 0 0 0 .25-.25V4.25a.25.25 0 0 0-.25-.25Z"></path>
      </g>
      <text x="75" y="35" font-family="system-ui, -apple-system, sans-serif" font-size="32" font-weight="700" fill="white">1.2k</text>
      <text x="75" y="52" font-family="system-ui, -apple-system, sans-serif" font-size="10" font-weight="600" fill="#9ca3af" letter-spacing="0.5">ISSUE COMMENTS</text>
    </g>
    
    <g transform="translate(250, 90)">
      <rect x="-5" y="-5" width="70" height="70" rx="14" fill="#22c55e" opacity="0.15" filter="url(#glow)"/>
      <rect width="60" height="60" rx="12" fill="#1f2937" stroke="#22c55e" stroke-width="1.5" opacity="0.9"/>
      <g transform="translate(18, 18)" fill="#22c55e">
        <path d="M3 2.75A2.75 2.75 0 0 1 5.75 0h14.5a.75.75 0 0 1 .75.75v20.5a.75.75 0 0 1-.75.75h-6a.75.75 0 0 1 0-1.5h5.25v-4H6A1.5 1.5 0 0 0 4.5 18v.75c0 .716.43 1.334 1.05 1.605a.75.75 0 0 1-.6 1.374A3.251 3.251 0 0 1 3 18.75ZM19.5 1.5H5.75c-.69 0-1.25.56-1.25 1.25v12.651A2.989 2.989 0 0 1 6 15h13.5Z"></path><path d="M7 18.25a.25.25 0 0 1 .25-.25h5a.25.25 0 0 1 .25.25v5.01a.25.25 0 0 1-.397.201l-2.206-1.604a.25.25 0 0 0-.294 0L7.397 23.46a.25.25 0 0 1-.397-.2v-5.01Z"></path>
      </g>
      <text x="75" y="35" font-family="system-ui, -apple-system, sans-serif" font-size="32" font-weight="700" fill="white">3</text>
      <text x="75" y="52" font-family="system-ui, -apple-system, sans-serif" font-size="10" font-weight="600" fill="#9ca3af" letter-spacing="0.5">PROJECTS OWNED</text>
    </g>
    
    <g transform="translate(500, 90)">
      <rect x="-5" y="-5" width="70" height="70" rx="14" fill="#22c55e" opacity="0.15" filter="url(#glow)"/>
      <rect width="60" height="60" rx="12" fill="#1f2937" stroke="#22c55e" stroke-width="1.5" opacity="0.9"/>
      <g transform="translate(18, 18)" fill="#22c55e">
        <path d="M12 .25a.75.75 0 0 1 .673.418l3.058 6.197 6.839.994a.75.75 0 0 1 .415 1.279l-4.948 4.823 1.168 6.811a.751.751 0 0 1-1.088.791L12 18.347l-6.117 3.216a.75.75 0 0 1-1.088-.79l1.168-6.812-4.948-4.823a.75.75 0 0 1 .416-1.28l6.838-.993L11.328.668A.75.75 0 0 1 12 .25Zm0 2.445L9.44 7.882a.75.75 0 0 1-.565.41l-5.725.832 4.143 4.038a.748.748 0 0 1 .215.664l-.978 5.702 5.121-2.692a.75.75 0 0 1 .698 0l5.12 2.692-.977-5.702a.748.748 0 0 1 .215-.664l4.143-4.038-5.725-.831a.75.75 0 0 1-.565-.41L12 2.694Z"></path>
      </g>
      <text x="75" y="35" font-family="system-ui, -apple-system, sans-serif" font-size="32" font-weight="700" fill="white">15.4k</text>
      <text x="75" y="52" font-family="system-ui, -apple-system, sans-serif" font-size="10" font-weight="600" fill="#9ca3af" letter-spacing="0.5">STARS EARNED</text>
    </g>
  </g>
  
  <g transform="translate(40, 270)">
    <text x="0" y="20" font-family="system-ui, -apple-system, sans-serif" font-size="14" font-weight="700" fill="#9ca3af" letter-spacing="1">TOP PROJECTS CREATED</text>
    
    <a xlink:href="" target="_blank">
      <g transform="translate(0, 35)">
        <rect width="340" height="45" rx="10" fill="#1f2937" opacity="0.3" stroke="#374151" stroke-width="1"/>
        <g transform="translate(10, 10.5)">
          <image href="" width="24" height="24" clip-path="url(#repo-clip)" x="0" y="0"/>
        </g>
        <text x="42" y="28" font-family="system-ui, -apple-system, sans-serif" font-size="13" font-weight="600" fill="white">alexdev/awesome-tool</text>
        
        
	<g transform="translate(260, 10.5)">
		
      <rect width="24" height="24" rx="6" fill="#1f2937" opacity="0.6" stroke="#22c55e" stroke-width="1"/>
      <g transform="translate(4.5, 4.5) scale(0.6)" stroke="#22c55e" fill="none">
        <path d="M12 .25a.75.75 0 0 1 .673.418l3.058 6.197 6.839.994a.75.75 0 0 1 .415 1.279l-4.948 4.823 1.168 6.811a.751.751 0 0 1-1.088.791L12 18.347l-6.117 3.216a.75.75 0 0 1-1.088-.79l1.168-6.812-4.948-4.823a.75.75 0 0 1 .416-1.28l6.838-.993L11.328.668A.75.75 0 0 1 12 .25Zm0 2.445L9.44 7.882a.75.75 0 0 1-.565.41l-5.725.832 4.143 4.038a.748.748 0 0 1 .215.664l-.978 5.702 5.121-2.692a.75.75 0 0 1 .698 0l5.12 2.692-.977-5.702a.748.748 0 0 1 .215-.664l4.143-4.038-5.725-.831a.75.75 0 0 1-.565-.41L12 2.694Z"></path>
      </g>
		<text x="32" y="16.5"
			font-family="system-ui, -apple-system, sans-serif"
			font-size="14"
			font-weight="600"
			fill="#22c55e">12.5k</text>
	</g>
      </g>
    </a>
    <a xlink:href="" target="_blank">
      <g transform="translate(0, 90)">
        <rect width="340" height="45" rx="10" fill="#1f2937" opacity="0.3" stroke="#374151" stroke-width="1"/>
        <g transform="translate(10, 10.5)">
          <image href="" width="24" height="24" clip-path="url(#repo-clip)" x="0" y="0"/>
        </g>
        <text x="42" y="28" font-family="system-ui, -apple-system, sans-serif" font-size="13" font-weight="600" fill="white">alexdev/lib-go</text>
        
        
	<g transform="translate(260, 10.5)">
		
      <rect width="24" height="24" rx="6" fill="#1f2937" opacity="0.6" stroke="#22c55e" stroke-width="1"/>
      <g transform="translate(4.5, 4.5) scale(0.6)" stroke="#22c55e" fill="none">
        <path d="M12 .25a.75.75 0 0 1 .673.418l3.058 6.197 6.839.994a.75.75 0 0 1 .415 1.279l-4.948 4.823 1.168 6.811a.751.751 0 0 1-1.088.791L12 18.347l-6.117 3.216a.75.75 0 0 1-1.088-.79l1.168-6.812-4.948-4.823a.75.75 0 0 1 .416-1.28l6.838-.993L11.328.668A.75.75 0 0 1 12 .25Zm0 2.445L9.44 7.882a.75.75 0 0 1-.565.41l-5.725.832 4.143 4.038a.748.748 0 0 1 .215.664l-.978 5.702 5.121-2.692a.75.75 0 0 1 .698 0l5.12 2.692-.977-5.702a.748.748 0 0 1 .215-.664l4.143-4.038-5.725-.831a.75.75 0 0 1-.565-.41L12 2.694Z"></path>
      </g>
		<text x="32" y="16.5"
			font-family="system-ui, -apple-system, sans-serif"
			font-size="14"
			font-weight="600"
			fill="#22c55e">2.1k</text>
	</g>
      </g>
    </a>
    <a xlink:href="" target="_blank">
      <g transform="translate(0, 145)">
        <rect width="340" height="45" rx="10" fill="#1f2937" opacity="0.3" stroke="#374151" stroke-width="1"/>
        <g transform="translate(10, 10.5)">
          <image href="" width="24" height="24" clip-path="url(#repo-clip)" x="0" y="0"/>
        </g>
        <text x="42" y="28" font-family="system-ui, -apple-system, sans-serif" font-size="13" font-weight="600" fill="white">alexdev/cli-util</text>
        
        
	<g transform="translate(260, 10.5)">
		
      <rect width="24" height="24" rx="6" fill="#1f2937" opacity="0.6" stroke="#22c55e" stroke-width="1"/>
      <g transform="translate(4.5, 4.5) scale(0.6)" stroke="#22c55e" fill="none">
        <path d="M12 .25a.75.75 0 0 1 .673.418l3.058 6.197 6.839.994a.75.75 0 0 1 .415 1.279l-4.948 4.823 1.168 6.811a.751.751 0 0 1-1.088.791L12 18.347l-6.117 3.216a.75.75 0 0 1-1.088-.79l1.168-6.812-4.948-4.823a.75.75 0 0 1 .416-1.28l6.838-.993L11.328.668A.75.75 0 0 1 12 .25Zm0 2.445L9.44 7.882a.75.75 0 0 1-.565.41l-5.725.832 4.143 4.038a.748.748 0 0 1 .215.664l-.978 5.702 5.121-2.692a.75.75 0 0 1 .698 0l5.12 2.692-.977-5.702a.748.748 0 0 1 .215-.664l4.143-4.038-5.725-.831a.75.75 0 0 1-.565-.41L12 2.694Z"></path>
      </g>
		<text x="32" y="16.5"
			font-family="system-ui, -apple-system, sans-serif"
			font-size="14"
			font-weight="600"
			fill="#22c55e">800</text>
	</g>
      </g>
    </a>
  </g>
  <g transform="translate(420, 270)">
    <text x="0" y="20" font-family="system-ui, -apple-system, sans-serif" font-size="14" font-weight="700" fill="#9ca3af" letter-spacing="1">KEY CONTRIBUTIONS</text>
    
    <a xlink:href="https://github.com/golang/go" target="_blank">
      <g transform="translate(0, 35)">
        <rect width="340" height="45" rx="10" fill="#1f2937" opacity="0.3" stroke="#374151" stroke-width="1"/>
        <g transform="translate(10, 10.5)">
          <image href="" width="24" height="24" clip-path="url(#repo-clip)" x="0" y="0"/>
        </g>
        <text x="42" y="18" font-family="system-ui, -apple-system, sans-serif" font-size="13" font-weight="600" fill="white">go</text>
        <text x="42" y="32" font-family="system-ui, -apple-system, sans-serif" font-size="10" fill="#9ca3af">golang</text>
        <g transform="translate(335, 10.5)">
		<a xlink:href="https://github.com/golang/go/pulls?q=is%3Apr+author%3Aalexdev" target="_blank">
			<g transform="translate(-50, 0)">
				
      <rect width="24" height="24" rx="6" fill="#1f2937" opacity="0.6" stroke="#22c55e" stroke-width="1"/>
      <g transform="translate(4.5, 4.5) scale(0.6)" stroke="#22c55e" fill="none">
        <path d="M16 19.25a3.25 3.25 0 1 1 6.5 0 3.25 3.25 0 0 1-6.5 0Zm-14.5 0a3.25 3.25 0 1 1 6.5 0 3.25 3.25 0 0 1-6.5 0Zm0-14.5a3.25 3.25 0 1 1 6.5 0 3.25 3.25 0 0 1-6.5 0ZM4.75 3a1.75 1.75 0 1 0 .001 3.501A1.75 1.75 0 0 0 4.75 3Zm0 14.5a1.75 1.75 0 1 0 .001 3.501A1.75 1.75 0 0 0 4.75 17.5Zm14.5 0a1.75 1.75 0 1 0 .001 3.501 1.75 1.75 0 0 0-.001-3.501Z"></path><path d="M13.405 1.72a.75.75 0 0 1 0 1.06L12.185 4h4.065A3.75 3.75 0 0 1 20 7.75v8.75a.75.75 0 0 1-1.5 0V7.75a2.25 2.25 0 0 0-2.25-2.25h-4.064l1.22 1.22a.75.75 0 0 1-1.061 1.06l-2.5-2.5a.75.75 0 0 1 0-1.06l2.5-2.5a.75.75 0 0 1 1.06 0ZM4.75 7.25A.75.75 0 0 1 5.5 8v8A.75.75 0 0 1 4 16V8a.75.75 0 0 1 .75-.75Z"></path>
      </g>
				<text x="28" y="16.5"
					font-family="system-ui, -apple-system, sans-serif"
					font-size="11"
					font-weight="700"
					fill="#22c55e">8</text>
			</g>
		</a>
		<a xlink:href="https://github.com/golang/go/pulls?q=is%3Apr+involves%3Aalexdev" target="_blank">
			<g transform="translate(-100, 0)">
				
      <rect width="24" height="24" rx="6" fill="#1f2937" opacity="0.6" stroke="#22c55e" stroke-width="1"/>
      <g transform="translate(4.5, 4.5) scale(0.6)" stroke="#22c55e" fill="none">
        <path d="M10.3 6.74a.75.75 0 0 1-.04 1.06l-2.908 2.7 2.908 2.7a.75.75 0 1 1-1.02 1.1l-3.5-3.25a.75.75 0 0 1 0-1.1l3.5-3.25a.75.75 0 0 1 1.06.04Zm3.44 1.06a.75.75 0 1 1 1.02-1.1l3.5 3.25a.75.75 0 0 1 0 1.1l-3.5 3.25a.75.75 0 1 1-1.02-1.1l2.908-2.7-2.908-2.7Z"></path><path d="M1.5 4.25c0-.966.784-1.75 1.75-1.75h17.5c.966 0 1.75.784 1.75 1.75v12.5a1.75 1.75 0 0 1-1.75 1.75h-9.69l-3.573 3.573A1.458 1.458 0 0 1 5 21.043V18.5H3.25a1.75 1.75 0 0 1-1.75-1.75ZM3.25 4a.25.25 0 0 0-.25.25v12.5c0 .138.112.25.25.25h2.5a.75.75 0 0 1 .75.75v3.19l3.72-3.72a.749.749 0 0 1 .53-.22h10a.25.25 0 0 0 .25-.25V4.25a.25.25 0 0 0-.25-.25Z"></path>
      </g>
				<text x="28" y="16.5"
					font-family="system-ui, -apple-system, sans-serif"
					font-size="11"
					font-weight="700"
					fill="#22c55e">57</text>
			</g>
		</a></g>
      </g>
    </a>
    <a xlink:href="https://github.com/hashicorp/terraform" target="_blank">
      <g transform="translate(0, 90)">
        <rect width="340" height="45" rx="10" fill="#1f2937" opacity="0.3" stroke="#374151" stroke-width="1"/>
        <g transform="translate(10, 10.5)">
          <image href="" width="24" height="24" clip-path="url(#repo-clip)" x="0" y="0"/>
        </g>
        <text x="42" y="18" font-family="system-ui, -apple-system, sans-serif" font-size="13" font-weight="600" fill="white">terraform</text>
        <text x="42" y="32" font-family="system-ui, -apple-system, sans-serif" font-size="10" fill="#9ca3af">hashicorp</text>
        <g transform="translate(335, 10.5)">
		<a xlink:href="https://github.com/hashicorp/terraform/pulls?q=is%3Apr+author%3Aalexdev" target="_blank">
			<g transform="translate(-50, 0)">
				
      <rect width="24" height="24" rx="6" fill="#1f2937" opacity="0.6" stroke="#22c55e" stroke-width="1"/>
      <g transform="translate(4.5, 4.5) scale(0.6)" stroke="#22c55e" fill="none">
        <path d="M16 19.25a3.25 3.25 0 1 1 6.5 0 3.25 3.25 0 0 1-6.5 0Zm-14.5 0a3.25 3.25 0 1 1 6.5 0 3.25 3.25 0 0 1-6.5 0Zm0-14.5a3.25 3.25 0 1 1 6.5 0 3.25 3.25 0 0 1-6.5 0ZM4.75 3a1.75 1.75 0 1 0 .001 3.501A1.75 1.75 0 0 0 4.75 3Zm0 14.5a1.75 1.75 0 1 0 .001 3.501A1.75 1.75 0 0 0 4.75 17.5Zm14.5 0a1.75 1.75 0 1 0 .001 3.501 1.75 1.75 0 0 0-.001-3.501Z"></path><path d="M13.405 1.72a.75.75 0 0 1 0 1.06L12.185 4h4.065A3.75 3.75 0 0 1 20 7.75v8.75a.75.75 0 0 1-1.5 0V7.75a2.25 2.25 0 0 0-2.25-2.25h-4.064l1.22 1.22a.75.75 0 0 1-1.061 1.06l-2.5-2.5a.75.75 0 0 1 0-1.06l2.5-2.5a.75.75 0 0 1 1.06 0ZM4.75 7.25A.75.75 0 0 1 5.5 8v8A.75.75 0 0 1 4 16V8a.75.75 0 0 1 .75-.75Z"></path>
      </g>
				<text x="28" y="16.5"
					font-family="system-ui, -apple-system, sans-serif"
					font-size="11"
					font-weight="700"
					fill="#22c55e">5</text>
			</g>
		</a>
		<a xlink:href="https://github.com/hashicorp/terraform/issues?q=is%3Aissue+involves%3Aalexdev" target="_blank">
			<g transform="translate(-100, 0)">
				
      <rect width="24" height="24" rx="6" fill="#1f2937" opacity="0.6" stroke="#22c55e" stroke-width="1"/>
      <g transform="translate(4.5, 4.5) scale(0.6)" stroke="#22c55e" fill="none">
        <path d="M12 1c6.075 0 11 4.925 11 11s-4.925 11-11 11S1 18.075 1 12 5.925 1 12 1ZM2.5 12a9.5 9.5 0 0 0 9.5 9.5 9.5 9.5 0 0 0 9.5-9.5A9.5 9.5 0 0 0 12 2.5 9.5 9.5 0 0 0 2.5 12Zm9.5 2a2 2 0 1 1-.001-3.999A2 2 0 0 1 12 14Z"></path>
      </g>
				<text x="28" y="16.5"
					font-family="system-ui, -apple-system, sans-serif"
					font-size="11"
					font-weight="700"
					fill="#22c55e">101</text>
			</g>
		</a></g>
      </g>
    </a>
    <a xlink:href="https://github.com/kubernetes/kubernetes" target="_blank">
      <g transform="translate(0, 145)">
        <rect width="340" height="45" rx="10" fill="#1f2937" opacity="0.3" stroke="#374151" stroke-width="1"/>
        <g transform="translate(10, 10.5)">
          <image href="" width="24" height="24" clip-path="url(#repo-clip)" x="0" y="0"/>
        </g>
        <text x="42" y="18" font-family="system-ui, -apple-system, sans-serif" font-size="13" font-weight="600" fill="white">kubernetes</text>
        <text x="42" y="32" font-family="system-ui, -apple-system, sans-serif" font-size="10" fill="#9ca3af">kubernetes</text>
        <g transform="translate(335, 10.5)">
		<a xlink:href="https://github.com/kubernetes/kubernetes/pulls?q=is%3Apr+author%3Aalexdev" target="_blank">
			<g transform="translate(-50, 0)">
				
      <rect width="24" height="24" rx="6" fill="#1f2937" opacity="0.6" stroke="#22c55e" stroke-width="1"/>
      <g transform="translate(4.5, 4.5) scale(0.6)" stroke="#22c55e" fill="none">
        <path d="M16 19.25a3.25 3.25 0 1 1 6.5 0 3.25 3.25 0 0 1-6.5 0Zm-14.5 0a3.25 3.25 0 1 1 6.5 0 3.25 3.25 0 0 1-6.5 0Zm0-14.5a3.25 3.25 0 1 1 6.5 0 3.25 3.25 0 0 1-6.5 0ZM4.75 3a1.75 1.75 0 1 0 .001 3.501A1.75 1.75 0 0 0 4.75 3Zm0 14.5a1.75 1.75 0 1 0 .001 3.501A1.75 1.75 0 0 0 4.75 17.5Zm14.5 0a1.75 1.75 0 1 0 .001 3.501 1.75 1.75 0 0 0-.001-3.501Z"></path><path d="M13.405 1.72a.75.75 0 0 1 0 1.06L12.185 4h4.065A3.75 3.75 0 0 1 20 7.75v8.75a.75.75 0 0 1-1.5 0V7.75a2.25 2.25 0 0 0-2.25-2.25h-4.064l1.22 1.22a.75.75 0 0 1-1.061 1.06l-2.5-2.5a.75.75 0 0 1 0-1.06l2.5-2.5a.75.75 0 0 1 1.06 0ZM4.75 7.25A.75.75 0 0 1 5.5 8v8A.75.75 0 0 1 4 16V8a.75.75 0 0 1 .75-.75Z"></path>
      </g>
				<text x="28" y="16.5"
					font-family="system-ui, -apple-system, sans-serif"
					font-size="11"
					font-weight="700"
					fill="#22c55e">15</text>
			</g>
		</a>
		<a xlink:href="https://github.com/kubernetes/kubernetes/pulls?q=is%3Apr+involves%3Aalexdev" target="_blank">
			<g transform="translate(-100, 0)">
				
      <rect width="24" height="24" rx="6" fill="#1f2937" opacity="0.6" stroke="#22c55e" stroke-width="1"/>
      <g transform="translate(4.5, 4.5) scale(0.6)" stroke="#22c55e" fill="none">
        <path d="M10.3 6.74a.75.75 0 0 1-.04 1.06l-2.908 2.7 2.908 2.7a.75.75 0 1 1-1.02 1.1l-3.5-3.25a.75.75 0 0 1 0-1.1l3.5-3.25a.75.75 0 0 1 1.06.04Zm3.44 1.06a.75.75 0 1 1 1.02-1.1l3.5 3.25a.75.75 0 0 1 0 1.1l-3.5 3.25a.75.75 0 1 1-1.02-1.1l2.908-2.7-2.908-2.7Z"></path><path d="M1.5 4.25c0-.966.784-1.75 1.75-1.75h17.5c.966 0 1.75.784 1.75 1.75v12.5a1.75 1.75 0 0 1-1.75 1.75h-9.69l-3.573 3.573A1.458 1.458 0 0 1 5 21.043V18.5H3.25a1.75 1.75 0 0 1-1.75-1.75ZM3.25 4a.25.25 0 0 0-.25.25v12.5c0 .138.112.25.25.25h2.5a.75.75 0 0 1 .75.75v3.19l3.72-3.72a.749.749 0 0 1 .53-.22h10a.25.25 0 0 0 .25-.25V4.25a.25.25 0 0 0-.25-.25Z"></path>
      </g>
				<text x="28" y="16.5"
					font-family="system-ui, -apple-system, sans-serif"
					font-size="11"
					font-weight="700"
					fill="#22c55e">198</text>
			</g>
		</a></g>
      </g>
    </a>
  </g>
  
  <g transform="translate(40, 500)">
    <text x="0" y="0" font-family="system-ui, -apple-system, sans-serif" font-size="11" fill="#6b7280">Range: All-time</text>
    <a xlink:href="https://github.com/arayofcode/footprint" target="_blank"><text x="400" y="0" text-anchor="middle" font-family="system-ui, -apple-system, sans-serif" font-size="11" font-weight="600" fill="#22c55e" style="cursor: pointer;">Generated by Footprint</text></a>
    <text x="720" y="0" text-anchor="end" font-family="system-ui, -apple-system, sans-serif" font-size="11" fill="#6b7280">Last Updated 15 Feb 2026</text>
  </g>
</svg>
